<?xml version="1.0" encoding="UTF-8" standalone="no"?>
<!DOCTYPE svg PUBLIC "-//W3C//DTD SVG 1.1//EN"
 "http://www.w3.org/Graphics/SVG/1.1/DTD/svg11.dtd">
<!-- Generated by graphviz version 2.44.0 (0)
 -->
<!-- Title: lab3.test Pages: 1 -->
<svg width="100%" height="100%" xmlns="http://www.w3.org/2000/svg" xmlns:xlink="http://www.w3.org/1999/xlink">
<script type="text/ecmascript"><![CDATA[
/**
 *  SVGPan library 1.2.2
 * ======================
 *
 * Given an unique existing element with id "viewport" (or when missing, the
 * first g-element), including the library into any SVG adds the following
 * capabilities:
 *
 *  - Mouse panning
 *  - Mouse zooming (using the wheel)
 *  - Object dragging
 *
 * You can configure the behaviour of the pan/zoom/drag with the variables
 * listed in the CONFIGURATION section of this file.
 *
 * Known issues:
 *
 *  - Zooming (while panning) on Safari has still some issues
 *
 * Releases:
 *
 * 1.2.2, Tue Aug 30 17:21:56 CEST 2011, Andrea Leofreddi
 *	- Fixed viewBox on root tag (#7)
 *	- Improved zoom speed (#2)
 *
 * 1.2.1, Mon Jul  4 00:33:18 CEST 2011, Andrea Leofreddi
 *	- Fixed a regression with mouse wheel (now working on Firefox 5)
 *	- Working with viewBox attribute (#4)
 *	- Added "use strict;" and fixed resulting warnings (#5)
 *	- Added configuration variables, dragging is disabled by default (#3)
 *
 * 1.2, Sat Mar 20 08:42:50 GMT 2010, Zeng Xiaohui
 *	Fixed a bug with browser mouse handler interaction
 *
 * 1.1, Wed Feb  3 17:39:33 GMT 2010, Zeng Xiaohui
 *	Updated the zoom code to support the mouse wheel on Safari/Chrome
 *
 * 1.0, Andrea Leofreddi
 *	First release
 *
 * This code is licensed under the following BSD license:
 *
 * Copyright 2009-2017 Andrea Leofreddi <a.leofreddi@vleo.net>. All rights reserved.
 *
 * Redistribution and use in source and binary forms, with or without modification, are
 * permitted provided that the following conditions are met:
 *
 *    1. Redistributions of source code must retain the above copyright
 *       notice, this list of conditions and the following disclaimer.
 *    2. Redistributions in binary form must reproduce the above copyright
 *       notice, this list of conditions and the following disclaimer in the
 *       documentation and/or other materials provided with the distribution.
 *    3. Neither the name of the copyright holder nor the names of its
 *       contributors may be used to endorse or promote products derived from
 *       this software without specific prior written permission.
 *
 * THIS SOFTWARE IS PROVIDED BY COPYRIGHT HOLDERS AND CONTRIBUTORS ''AS IS'' AND ANY EXPRESS
 * OR IMPLIED WARRANTIES, INCLUDING, BUT NOT LIMITED TO, THE IMPLIED WARRANTIES OF MERCHANTABILITY
 * AND FITNESS FOR A PARTICULAR PURPOSE ARE DISCLAIMED. IN NO EVENT SHALL COPYRIGHT HOLDERS OR
 * CONTRIBUTORS BE LIABLE FOR ANY DIRECT, INDIRECT, INCIDENTAL, SPECIAL, EXEMPLARY, OR
 * CONSEQUENTIAL DAMAGES (INCLUDING, BUT NOT LIMITED TO, PROCUREMENT OF SUBSTITUTE GOODS OR
 * SERVICES; LOSS OF USE, DATA, OR PROFITS; OR BUSINESS INTERRUPTION) HOWEVER CAUSED AND ON
 * ANY THEORY OF LIABILITY, WHETHER IN CONTRACT, STRICT LIABILITY, OR TORT (INCLUDING
 * NEGLIGENCE OR OTHERWISE) ARISING IN ANY WAY OUT OF THE USE OF THIS SOFTWARE, EVEN IF
 * ADVISED OF THE POSSIBILITY OF SUCH DAMAGE.
 *
 * The views and conclusions contained in the software and documentation are those of the
 * authors and should not be interpreted as representing official policies, either expressed
 * or implied, of Andrea Leofreddi.
 */

"use strict";

/// CONFIGURATION
/// ====>

var enablePan = 1; // 1 or 0: enable or disable panning (default enabled)
var enableZoom = 1; // 1 or 0: enable or disable zooming (default enabled)
var enableDrag = 0; // 1 or 0: enable or disable dragging (default disabled)
var zoomScale = 0.2; // Zoom sensitivity

/// <====
/// END OF CONFIGURATION

var root = document.documentElement;

var state = 'none', svgRoot = null, stateTarget, stateOrigin, stateTf;

setupHandlers(root);

/**
 * Register handlers
 */
function setupHandlers(root){
	setAttributes(root, {
		"onmouseup" : "handleMouseUp(evt)",
		"onmousedown" : "handleMouseDown(evt)",
		"onmousemove" : "handleMouseMove(evt)",
		//"onmouseout" : "handleMouseUp(evt)", // Decomment this to stop the pan functionality when dragging out of the SVG element
	});

	if(navigator.userAgent.toLowerCase().indexOf('webkit') >= 0)
		window.addEventListener('mousewheel', handleMouseWheel, false); // Chrome/Safari
	else
		window.addEventListener('DOMMouseScroll', handleMouseWheel, false); // Others
}

/**
 * Retrieves the root element for SVG manipulation. The element is then cached into the svgRoot global variable.
 */
function getRoot(root) {
	if(svgRoot == null) {
		var r = root.getElementById("viewport") ? root.getElementById("viewport") : root.documentElement, t = r;

		while(t != root) {
			if(t.getAttribute("viewBox")) {
				setCTM(r, t.getCTM());

				t.removeAttribute("viewBox");
			}

			t = t.parentNode;
		}

		svgRoot = r;
	}

	return svgRoot;
}

/**
 * Instance an SVGPoint object with given event coordinates.
 */
function getEventPoint(evt) {
	var p = root.createSVGPoint();

	p.x = evt.clientX;
	p.y = evt.clientY;

	return p;
}

/**
 * Sets the current transform matrix of an element.
 */
function setCTM(element, matrix) {
	var s = "matrix(" + matrix.a + "," + matrix.b + "," + matrix.c + "," + matrix.d + "," + matrix.e + "," + matrix.f + ")";

	element.setAttribute("transform", s);
}

/**
 * Dumps a matrix to a string (useful for debug).
 */
function dumpMatrix(matrix) {
	var s = "[ " + matrix.a + ", " + matrix.c + ", " + matrix.e + "\n  " + matrix.b + ", " + matrix.d + ", " + matrix.f + "\n  0, 0, 1 ]";

	return s;
}

/**
 * Sets attributes of an element.
 */
function setAttributes(element, attributes){
	for (var i in attributes)
		element.setAttributeNS(null, i, attributes[i]);
}

/**
 * Handle mouse wheel event.
 */
function handleMouseWheel(evt) {
	if(!enableZoom)
		return;

	if(evt.preventDefault)
		evt.preventDefault();

	evt.returnValue = false;

	var svgDoc = evt.target.ownerDocument;

	var delta;

	if(evt.wheelDelta)
		delta = evt.wheelDelta / 360; // Chrome/Safari
	else
		delta = evt.detail / -9; // Mozilla

	var z = Math.pow(1 + zoomScale, delta);

	var g = getRoot(svgDoc);
	
	var p = getEventPoint(evt);

	p = p.matrixTransform(g.getCTM().inverse());

	// Compute new scale matrix in current mouse position
	var k = root.createSVGMatrix().translate(p.x, p.y).scale(z).translate(-p.x, -p.y);

        setCTM(g, g.getCTM().multiply(k));

	if(typeof(stateTf) == "undefined")
		stateTf = g.getCTM().inverse();

	stateTf = stateTf.multiply(k.inverse());
}

/**
 * Handle mouse move event.
 */
function handleMouseMove(evt) {
	if(evt.preventDefault)
		evt.preventDefault();

	evt.returnValue = false;

	var svgDoc = evt.target.ownerDocument;

	var g = getRoot(svgDoc);

	if(state == 'pan' && enablePan) {
		// Pan mode
		var p = getEventPoint(evt).matrixTransform(stateTf);

		setCTM(g, stateTf.inverse().translate(p.x - stateOrigin.x, p.y - stateOrigin.y));
	} else if(state == 'drag' && enableDrag) {
		// Drag mode
		var p = getEventPoint(evt).matrixTransform(g.getCTM().inverse());

		setCTM(stateTarget, root.createSVGMatrix().translate(p.x - stateOrigin.x, p.y - stateOrigin.y).multiply(g.getCTM().inverse()).multiply(stateTarget.getCTM()));

		stateOrigin = p;
	}
}

/**
 * Handle click event.
 */
function handleMouseDown(evt) {
	if(evt.preventDefault)
		evt.preventDefault();

	evt.returnValue = false;

	var svgDoc = evt.target.ownerDocument;

	var g = getRoot(svgDoc);

	if(
		evt.target.tagName == "svg"
		|| !enableDrag // Pan anyway when drag is disabled and the user clicked on an element
	) {
		// Pan mode
		state = 'pan';

		stateTf = g.getCTM().inverse();

		stateOrigin = getEventPoint(evt).matrixTransform(stateTf);
	} else {
		// Drag mode
		state = 'drag';

		stateTarget = evt.target;

		stateTf = g.getCTM().inverse();

		stateOrigin = getEventPoint(evt).matrixTransform(stateTf);
	}
}

/**
 * Handle mouse button release event.
 */
function handleMouseUp(evt) {
	if(evt.preventDefault)
		evt.preventDefault();

	evt.returnValue = false;

	var svgDoc = evt.target.ownerDocument;

	if(state == 'pan' || state == 'drag') {
		// Quit pan mode
		state = '';
	}
}
]]></script><g id="viewport" transform="scale(0.5,0.5) translate(0,0)"><g id="graph0" class="graph" transform="scale(1 1) rotate(0) translate(4 1177)">
<title>lab3.test</title>
<polygon fill="white" stroke="transparent" points="-4,4 -4,-1177 1169,-1177 1169,4 -4,4"/>
<g id="clust1" class="cluster">
<title>cluster_L</title>
<polygon fill="none" stroke="black" points="8,-1051 8,-1165 408,-1165 408,-1051 8,-1051"/>
</g>
<!-- File: lab3.test -->
<g id="node1" class="node">
<title>File: lab3.test</title>
<g id="a_node1"><a xlink:title="lab3.test">
<polygon fill="#f8f8f8" stroke="black" points="400,-1157 16,-1157 16,-1059 400,-1059 400,-1157"/>
<text text-anchor="start" x="24" y="-1140.2" font-family="Times,serif" font-size="16.00">File: lab3.test</text>
<text text-anchor="start" x="24" y="-1122.2" font-family="Times,serif" font-size="16.00">Type: cpu</text>
<text text-anchor="start" x="24" y="-1104.2" font-family="Times,serif" font-size="16.00">Time: May 23, 2020 at 2:31am (MSK)</text>
<text text-anchor="start" x="24" y="-1086.2" font-family="Times,serif" font-size="16.00">Duration: 2.11s, Total samples = 1.90s (90.23%)</text>
<text text-anchor="start" x="24" y="-1068.2" font-family="Times,serif" font-size="16.00">Showing nodes accounting for 1.90s, 100% of 1.90s total</text>
</a>
</g>
</g>
<!-- N1 -->
<g id="node1" class="node">
<title>N1</title>
<g id="a_node1"><a xlink:title="math.pow (1.48s)">
<polygon fill="#edd7d5" stroke="#b20c00" points="550.5,-643 359.5,-643 359.5,-531 550.5,-531 550.5,-643"/>
<text text-anchor="middle" x="455" y="-619.8" font-family="Times,serif" font-size="24.00">math</text>
<text text-anchor="middle" x="455" y="-593.8" font-family="Times,serif" font-size="24.00">pow</text>
<text text-anchor="middle" x="455" y="-567.8" font-family="Times,serif" font-size="24.00">0.63s (33.16%)</text>
<text text-anchor="middle" x="455" y="-541.8" font-family="Times,serif" font-size="24.00">of 1.48s (77.89%)</text>
</a>
</g>
</g>
<!-- N5 -->
<g id="node5" class="node">
<title>N5</title>
<g id="a_node5"><a xlink:title="math.ldexp (0.33s)">
<polygon fill="#ede0d8" stroke="#b25617" points="377,-465 223,-465 223,-373 377,-373 377,-465"/>
<text text-anchor="middle" x="300" y="-445.8" font-family="Times,serif" font-size="19.00">math</text>
<text text-anchor="middle" x="300" y="-424.8" font-family="Times,serif" font-size="19.00">ldexp</text>
<text text-anchor="middle" x="300" y="-403.8" font-family="Times,serif" font-size="19.00">0.27s (14.21%)</text>
<text text-anchor="middle" x="300" y="-382.8" font-family="Times,serif" font-size="19.00">of 0.33s (17.37%)</text>
</a>
</g>
</g>
<!-- N1&#45;&gt;N5 -->
<g id="edge5" class="edge">
<title>N1&#45;&gt;N5</title>
<g id="a_edge5"><a xlink:title="math.pow &#45;&gt; math.ldexp (0.33s)">
<path fill="none" stroke="#b25617" d="M403.39,-530.72C385.97,-512.07 366.59,-491.31 349.35,-472.85"/>
<polygon fill="#b25617" stroke="#b25617" points="351.49,-470.02 342.11,-465.1 346.37,-474.79 351.49,-470.02"/>
</a>
</g>
<g id="a_edge5&#45;label"><a xlink:title="math.pow &#45;&gt; math.ldexp (0.33s)">
<text text-anchor="middle" x="404" y="-494.3" font-family="Times,serif" font-size="14.00"> 0.33s</text>
</a>
</g>
</g>
<!-- N6 -->
<g id="node6" class="node">
<title>N6</title>
<g id="a_node6"><a xlink:title="math.modf (0.17s)">
<polygon fill="#ede8e2" stroke="#b28b62" points="732.5,-307 619.5,-307 619.5,-242 732.5,-242 732.5,-307"/>
<text text-anchor="middle" x="676" y="-289.4" font-family="Times,serif" font-size="17.00">math</text>
<text text-anchor="middle" x="676" y="-270.4" font-family="Times,serif" font-size="17.00">modf</text>
<text text-anchor="middle" x="676" y="-251.4" font-family="Times,serif" font-size="17.00">0.17s (8.95%)</text>
</a>
</g>
</g>
<!-- N1&#45;&gt;N6 -->
<g id="edge9" class="edge">
<title>N1&#45;&gt;N6</title>
<g id="a_edge9"><a xlink:title="math.pow &#45;&gt; math.modf (0.12s)">
<path fill="none" stroke="#b2997a" d="M550.68,-534.64C553.8,-533.37 556.91,-532.15 560,-531 592.94,-518.75 612.99,-538.67 637,-513 662.85,-485.36 671.64,-377.94 674.58,-317.47"/>
<polygon fill="#b2997a" stroke="#b2997a" points="678.09,-317.26 675.04,-307.12 671.1,-316.95 678.09,-317.26"/>
</a>
</g>
<g id="a_edge9&#45;label"><a xlink:title="math.pow &#45;&gt; math.modf (0.12s)">
<text text-anchor="middle" x="688" y="-415.3" font-family="Times,serif" font-size="14.00"> 0.12s</text>
</a>
</g>
</g>
<!-- N7 -->
<g id="node7" class="node">
<title>N7</title>
<g id="a_node7"><a xlink:title="math.frexp (0.18s)">
<polygon fill="#ede7e1" stroke="#b2885d" points="514.5,-457 395.5,-457 395.5,-381 514.5,-381 514.5,-457"/>
<text text-anchor="middle" x="455" y="-441" font-family="Times,serif" font-size="15.00">math</text>
<text text-anchor="middle" x="455" y="-424" font-family="Times,serif" font-size="15.00">frexp</text>
<text text-anchor="middle" x="455" y="-407" font-family="Times,serif" font-size="15.00">0.10s (5.26%)</text>
<text text-anchor="middle" x="455" y="-390" font-family="Times,serif" font-size="15.00">of 0.18s (9.47%)</text>
</a>
</g>
</g>
<!-- N1&#45;&gt;N7 -->
<g id="edge8" class="edge">
<title>N1&#45;&gt;N7</title>
<g id="a_edge8"><a xlink:title="math.pow &#45;&gt; math.frexp (0.18s)">
<path fill="none" stroke="#b2885d" d="M455,-530.72C455,-510.08 455,-486.86 455,-467.03"/>
<polygon fill="#b2885d" stroke="#b2885d" points="458.5,-467 455,-457 451.5,-467 458.5,-467"/>
</a>
</g>
<g id="a_edge8&#45;label"><a xlink:title="math.pow &#45;&gt; math.frexp (0.18s)">
<text text-anchor="middle" x="472" y="-494.3" font-family="Times,serif" font-size="14.00"> 0.18s</text>
</a>
</g>
</g>
<!-- N8 -->
<g id="node8" class="node">
<title>N8</title>
<g id="a_node8"><a xlink:title="math.IsInf (0.08s)">
<polygon fill="#edebe8" stroke="#b2a38c" points="562.5,-301 467.5,-301 467.5,-248 562.5,-248 562.5,-301"/>
<text text-anchor="middle" x="515" y="-285.8" font-family="Times,serif" font-size="14.00">math</text>
<text text-anchor="middle" x="515" y="-270.8" font-family="Times,serif" font-size="14.00">IsInf</text>
<text text-anchor="middle" x="515" y="-255.8" font-family="Times,serif" font-size="14.00">0.08s (4.21%)</text>
</a>
</g>
</g>
<!-- N1&#45;&gt;N8 -->
<g id="edge21" class="edge">
<title>N1&#45;&gt;N8</title>
<g id="a_edge21"><a xlink:title="math.pow &#45;&gt; math.IsInf (0.02s)">
<path fill="none" stroke="#b2b0a9" d="M491.91,-530.85C503.65,-510.88 515.51,-487.65 523,-465 542.63,-405.63 549.98,-386.17 537,-325 535.98,-320.19 534.46,-315.29 532.69,-310.52"/>
<polygon fill="#b2b0a9" stroke="#b2b0a9" points="535.81,-308.93 528.77,-301.01 529.34,-311.59 535.81,-308.93"/>
</a>
</g>
<g id="a_edge21&#45;label"><a xlink:title="math.pow &#45;&gt; math.IsInf (0.02s)">
<text text-anchor="middle" x="566" y="-422.8" font-family="Times,serif" font-size="14.00"> 0.02s</text>
<text text-anchor="middle" x="566" y="-407.8" font-family="Times,serif" font-size="14.00"> (inline)</text>
</a>
</g>
</g>
<!-- N9 -->
<g id="node9" class="node">
<title>N9</title>
<g id="a_node9"><a xlink:title="math.isOddInt (0.11s)">
<polygon fill="#edeae6" stroke="#b29c7e" points="825,-451 721,-451 721,-387 825,-387 825,-451"/>
<text text-anchor="middle" x="773" y="-436.6" font-family="Times,serif" font-size="13.00">math</text>
<text text-anchor="middle" x="773" y="-422.6" font-family="Times,serif" font-size="13.00">isOddInt</text>
<text text-anchor="middle" x="773" y="-408.6" font-family="Times,serif" font-size="13.00">0.05s (2.63%)</text>
<text text-anchor="middle" x="773" y="-394.6" font-family="Times,serif" font-size="13.00">of 0.11s (5.79%)</text>
</a>
</g>
</g>
<!-- N1&#45;&gt;N9 -->
<g id="edge10" class="edge">
<title>N1&#45;&gt;N9</title>
<g id="a_edge10"><a xlink:title="math.pow &#45;&gt; math.isOddInt (0.11s)">
<path fill="none" stroke="#b29c7e" d="M550.56,-534.3C553.72,-533.12 556.87,-532.02 560,-531 612.55,-513.94 633.83,-538.2 683,-513 707.6,-500.39 729.35,-478.42 745.3,-459"/>
<polygon fill="#b29c7e" stroke="#b29c7e" points="748.06,-461.15 751.55,-451.14 742.58,-456.78 748.06,-461.15"/>
</a>
</g>
<g id="a_edge10&#45;label"><a xlink:title="math.pow &#45;&gt; math.isOddInt (0.11s)">
<text text-anchor="middle" x="740" y="-494.3" font-family="Times,serif" font-size="14.00"> 0.11s</text>
</a>
</g>
</g>
<!-- N10 -->
<g id="node10" class="node">
<title>N10</title>
<g id="a_node10"><a xlink:title="math.Abs (0.08s)">
<polygon fill="#edebe8" stroke="#b2a38c" points="452,-176 356,-176 356,-116 452,-116 452,-176"/>
<text text-anchor="middle" x="404" y="-162.4" font-family="Times,serif" font-size="12.00">math</text>
<text text-anchor="middle" x="404" y="-149.4" font-family="Times,serif" font-size="12.00">Abs</text>
<text text-anchor="middle" x="404" y="-136.4" font-family="Times,serif" font-size="12.00">0.03s (1.58%)</text>
<text text-anchor="middle" x="404" y="-123.4" font-family="Times,serif" font-size="12.00">of 0.08s (4.21%)</text>
</a>
</g>
</g>
<!-- N1&#45;&gt;N10 -->
<g id="edge24" class="edge">
<title>N1&#45;&gt;N10</title>
<g id="a_edge24"><a xlink:title="math.pow &#45;&gt; math.Abs (0.01s)">
<path fill="none" stroke="#b2b1ad" d="M539.73,-530.95C560.74,-512.71 580.52,-490.46 592,-465 608.81,-427.73 595.25,-413.76 592,-373 587.32,-314.22 604.6,-290.46 571,-242 545,-204.51 499.11,-179.96 462.01,-165.23"/>
<polygon fill="#b2b1ad" stroke="#b2b1ad" points="462.88,-161.81 452.29,-161.51 460.38,-168.35 462.88,-161.81"/>
</a>
</g>
<g id="a_edge24&#45;label"><a xlink:title="math.pow &#45;&gt; math.Abs (0.01s)">
<text text-anchor="middle" x="614" y="-343.8" font-family="Times,serif" font-size="14.00"> 0.01s</text>
<text text-anchor="middle" x="614" y="-328.8" font-family="Times,serif" font-size="14.00"> (inline)</text>
</a>
</g>
</g>
<!-- N12 -->
<g id="node12" class="node">
<title>N12</title>
<g id="a_node12"><a xlink:title="math.Modf (0.05s)">
<polygon fill="#edecea" stroke="#b2aa9b" points="906.5,-299.5 815.5,-299.5 815.5,-249.5 906.5,-249.5 906.5,-299.5"/>
<text text-anchor="middle" x="861" y="-285.1" font-family="Times,serif" font-size="13.00">math</text>
<text text-anchor="middle" x="861" y="-271.1" font-family="Times,serif" font-size="13.00">Modf</text>
<text text-anchor="middle" x="861" y="-257.1" font-family="Times,serif" font-size="13.00">0.05s (2.63%)</text>
</a>
</g>
</g>
<!-- N1&#45;&gt;N12 -->
<g id="edge15" class="edge">
<title>N1&#45;&gt;N12</title>
<g id="a_edge15"><a xlink:title="math.pow &#45;&gt; math.Modf (0.04s)">
<path fill="none" stroke="#b2ac9f" d="M550.79,-533.96C553.87,-532.89 556.94,-531.9 560,-531 680.18,-495.67 766.9,-570.77 834,-465 864.07,-417.6 866.21,-350.26 864.19,-309.92"/>
<polygon fill="#b2ac9f" stroke="#b2ac9f" points="867.68,-309.55 863.57,-299.78 860.69,-309.98 867.68,-309.55"/>
</a>
</g>
<g id="a_edge15&#45;label"><a xlink:title="math.pow &#45;&gt; math.Modf (0.04s)">
<text text-anchor="middle" x="879" y="-415.3" font-family="Times,serif" font-size="14.00"> 0.04s</text>
</a>
</g>
</g>
<!-- N15 -->
<g id="node15" class="node">
<title>N15</title>
<g id="a_node15"><a xlink:title="math.Ldexp (0.03s)">
<polygon fill="#edeceb" stroke="#b2aea4" points="996.5,-442.5 913.5,-442.5 913.5,-395.5 996.5,-395.5 996.5,-442.5"/>
<text text-anchor="middle" x="955" y="-428.9" font-family="Times,serif" font-size="12.00">math</text>
<text text-anchor="middle" x="955" y="-415.9" font-family="Times,serif" font-size="12.00">Ldexp</text>
<text text-anchor="middle" x="955" y="-402.9" font-family="Times,serif" font-size="12.00">0.03s (1.58%)</text>
</a>
</g>
</g>
<!-- N1&#45;&gt;N15 -->
<g id="edge19" class="edge">
<title>N1&#45;&gt;N15</title>
<g id="a_edge19"><a xlink:title="math.pow &#45;&gt; math.Ldexp (0.03s)">
<path fill="none" stroke="#b2aea4" d="M550.75,-533.83C553.84,-532.8 556.93,-531.85 560,-531 627.58,-512.31 812.13,-544.05 875,-513 902.02,-499.65 923.61,-472.65 937.52,-451.16"/>
<polygon fill="#b2aea4" stroke="#b2aea4" points="940.51,-452.98 942.83,-442.64 934.57,-449.28 940.51,-452.98"/>
</a>
</g>
<g id="a_edge19&#45;label"><a xlink:title="math.pow &#45;&gt; math.Ldexp (0.03s)">
<text text-anchor="middle" x="928" y="-494.3" font-family="Times,serif" font-size="14.00"> 0.03s</text>
</a>
</g>
</g>
<!-- N17 -->
<g id="node17" class="node">
<title>N17</title>
<g id="a_node17"><a xlink:title="math.IsNaN (0.01s)">
<polygon fill="#ededec" stroke="#b2b1ad" points="1093,-441 1015,-441 1015,-397 1093,-397 1093,-441"/>
<text text-anchor="middle" x="1054" y="-428.2" font-family="Times,serif" font-size="11.00">math</text>
<text text-anchor="middle" x="1054" y="-416.2" font-family="Times,serif" font-size="11.00">IsNaN</text>
<text text-anchor="middle" x="1054" y="-404.2" font-family="Times,serif" font-size="11.00">0.01s (0.53%)</text>
</a>
</g>
</g>
<!-- N1&#45;&gt;N17 -->
<g id="edge25" class="edge">
<title>N1&#45;&gt;N17</title>
<g id="a_edge25"><a xlink:title="math.pow &#45;&gt; math.IsNaN (0.01s)">
<path fill="none" stroke="#b2b1ad" d="M550.74,-533.79C553.83,-532.77 556.92,-531.83 560,-531 643.53,-508.39 868.42,-544.54 949,-513 982.32,-499.96 1011.99,-471.24 1031.21,-449.15"/>
<polygon fill="#b2b1ad" stroke="#b2b1ad" points="1034.03,-451.24 1037.81,-441.35 1028.68,-446.72 1034.03,-451.24"/>
</a>
</g>
<g id="a_edge25&#45;label"><a xlink:title="math.pow &#45;&gt; math.IsNaN (0.01s)">
<text text-anchor="middle" x="1016" y="-501.8" font-family="Times,serif" font-size="14.00"> 0.01s</text>
<text text-anchor="middle" x="1016" y="-486.8" font-family="Times,serif" font-size="14.00"> (inline)</text>
</a>
</g>
</g>
<!-- N2 -->
<g id="node2" class="node">
<title>N2</title>
<g id="a_node2"><a xlink:title="_/home/semyon/Projects/bonch&#45;labs/AFSE/lab3.BenchmarkTangents (1.90s)">
<polygon fill="#edd5d5" stroke="#b20000" points="538,-913 372,-913 372,-825 538,-825 538,-913"/>
<text text-anchor="middle" x="455" y="-894.6" font-family="Times,serif" font-size="18.00">lab3</text>
<text text-anchor="middle" x="455" y="-874.6" font-family="Times,serif" font-size="18.00">BenchmarkTangents</text>
<text text-anchor="middle" x="455" y="-854.6" font-family="Times,serif" font-size="18.00">0.23s (12.11%)</text>
<text text-anchor="middle" x="455" y="-834.6" font-family="Times,serif" font-size="18.00">of 1.90s (100%)</text>
</a>
</g>
</g>
<!-- N4 -->
<g id="node4" class="node">
<title>N4</title>
<g id="a_node4"><a xlink:title="_/home/semyon/Projects/bonch&#45;labs/AFSE/lab3.f (1.36s)">
<polygon fill="#edd7d5" stroke="#b21100" points="521.5,-774 388.5,-774 388.5,-694 521.5,-694 521.5,-774"/>
<text text-anchor="middle" x="455" y="-757.2" font-family="Times,serif" font-size="16.00">lab3</text>
<text text-anchor="middle" x="455" y="-739.2" font-family="Times,serif" font-size="16.00">f</text>
<text text-anchor="middle" x="455" y="-721.2" font-family="Times,serif" font-size="16.00">0.14s (7.37%)</text>
<text text-anchor="middle" x="455" y="-703.2" font-family="Times,serif" font-size="16.00">of 1.36s (71.58%)</text>
</a>
</g>
</g>
<!-- N2&#45;&gt;N4 -->
<g id="edge3" class="edge">
<title>N2&#45;&gt;N4</title>
<g id="a_edge3"><a xlink:title="_/home/semyon/Projects/bonch&#45;labs/AFSE/lab3.BenchmarkTangents &#45;&gt; _/home/semyon/Projects/bonch&#45;labs/AFSE/lab3.f (1.36s)">
<path fill="none" stroke="#b21100" stroke-width="4" d="M455,-824.82C455,-812.01 455,-797.88 455,-784.7"/>
<polygon fill="#b21100" stroke="#b21100" stroke-width="4" points="458.5,-784.37 455,-774.37 451.5,-784.37 458.5,-784.37"/>
</a>
</g>
<g id="a_edge3&#45;label"><a xlink:title="_/home/semyon/Projects/bonch&#45;labs/AFSE/lab3.BenchmarkTangents &#45;&gt; _/home/semyon/Projects/bonch&#45;labs/AFSE/lab3.f (1.36s)">
<text text-anchor="middle" x="472" y="-795.8" font-family="Times,serif" font-size="14.00"> 1.36s</text>
</a>
</g>
</g>
<!-- N2&#45;&gt;N10 -->
<g id="edge22" class="edge">
<title>N2&#45;&gt;N10</title>
<g id="a_edge22"><a xlink:title="_/home/semyon/Projects/bonch&#45;labs/AFSE/lab3.BenchmarkTangents &#45;&gt; math.Abs (0.01s)">
<path fill="none" stroke="#b2b1ad" d="M538,-868.61C716.54,-867.69 1121,-852.61 1121,-735 1121,-735 1121,-735 1121,-273.5 1121,-206.76 633.06,-164.05 462.22,-151.14"/>
<polygon fill="#b2b1ad" stroke="#b2b1ad" points="462.39,-147.64 452.16,-150.38 461.87,-154.62 462.39,-147.64"/>
</a>
</g>
<g id="a_edge22&#45;label"><a xlink:title="_/home/semyon/Projects/bonch&#45;labs/AFSE/lab3.BenchmarkTangents &#45;&gt; math.Abs (0.01s)">
<text text-anchor="middle" x="1143" y="-501.8" font-family="Times,serif" font-size="14.00"> 0.01s</text>
<text text-anchor="middle" x="1143" y="-486.8" font-family="Times,serif" font-size="14.00"> (inline)</text>
</a>
</g>
</g>
<!-- N13 -->
<g id="node13" class="node">
<title>N13</title>
<g id="a_node13"><a xlink:title="_/home/semyon/Projects/bonch&#45;labs/AFSE/lab3.fp1 (0.30s)">
<polygon fill="#ede2da" stroke="#b26125" points="370.5,-762 275.5,-762 275.5,-706 370.5,-706 370.5,-762"/>
<text text-anchor="middle" x="323" y="-749.2" font-family="Times,serif" font-size="11.00">lab3</text>
<text text-anchor="middle" x="323" y="-737.2" font-family="Times,serif" font-size="11.00">fp1</text>
<text text-anchor="middle" x="323" y="-725.2" font-family="Times,serif" font-size="11.00">0.02s (1.05%)</text>
<text text-anchor="middle" x="323" y="-713.2" font-family="Times,serif" font-size="11.00">of 0.30s (15.79%)</text>
</a>
</g>
</g>
<!-- N2&#45;&gt;N13 -->
<g id="edge6" class="edge">
<title>N2&#45;&gt;N13</title>
<g id="a_edge6"><a xlink:title="_/home/semyon/Projects/bonch&#45;labs/AFSE/lab3.BenchmarkTangents &#45;&gt; _/home/semyon/Projects/bonch&#45;labs/AFSE/lab3.fp1 (0.30s)">
<path fill="none" stroke="#b26125" d="M412.14,-824.82C394.39,-806.93 374.07,-786.46 357.32,-769.58"/>
<polygon fill="#b26125" stroke="#b26125" points="359.43,-766.74 349.9,-762.1 354.46,-771.67 359.43,-766.74"/>
</a>
</g>
<g id="a_edge6&#45;label"><a xlink:title="_/home/semyon/Projects/bonch&#45;labs/AFSE/lab3.BenchmarkTangents &#45;&gt; _/home/semyon/Projects/bonch&#45;labs/AFSE/lab3.fp1 (0.30s)">
<text text-anchor="middle" x="410" y="-795.8" font-family="Times,serif" font-size="14.00"> 0.30s</text>
</a>
</g>
</g>
<!-- N3 -->
<g id="node3" class="node">
<title>N3</title>
<g id="a_node3"><a xlink:title="testing.(*B).launch (1.90s)">
<polygon fill="#edd5d5" stroke="#b20000" points="492,-1130 418,-1130 418,-1086 492,-1086 492,-1130"/>
<text text-anchor="middle" x="455" y="-1119.6" font-family="Times,serif" font-size="8.00">testing</text>
<text text-anchor="middle" x="455" y="-1110.6" font-family="Times,serif" font-size="8.00">(*B)</text>
<text text-anchor="middle" x="455" y="-1101.6" font-family="Times,serif" font-size="8.00">launch</text>
<text text-anchor="middle" x="455" y="-1092.6" font-family="Times,serif" font-size="8.00">0 of 1.90s (100%)</text>
</a>
</g>
</g>
<!-- N18 -->
<g id="node18" class="node">
<title>N18</title>
<g id="a_node18"><a xlink:title="testing.(*B).runN (1.90s)">
<polygon fill="#edd5d5" stroke="#b20000" points="492,-1008 418,-1008 418,-964 492,-964 492,-1008"/>
<text text-anchor="middle" x="455" y="-997.6" font-family="Times,serif" font-size="8.00">testing</text>
<text text-anchor="middle" x="455" y="-988.6" font-family="Times,serif" font-size="8.00">(*B)</text>
<text text-anchor="middle" x="455" y="-979.6" font-family="Times,serif" font-size="8.00">runN</text>
<text text-anchor="middle" x="455" y="-970.6" font-family="Times,serif" font-size="8.00">0 of 1.90s (100%)</text>
</a>
</g>
</g>
<!-- N3&#45;&gt;N18 -->
<g id="edge1" class="edge">
<title>N3&#45;&gt;N18</title>
<g id="a_edge1"><a xlink:title="testing.(*B).launch &#45;&gt; testing.(*B).runN (1.90s)">
<path fill="none" stroke="#b20000" stroke-width="6" d="M455,-1085.82C455,-1067.17 455,-1039.75 455,-1018.53"/>
<polygon fill="#b20000" stroke="#b20000" stroke-width="6" points="460.25,-1018.37 455,-1008.37 449.75,-1018.37 460.25,-1018.37"/>
</a>
</g>
<g id="a_edge1&#45;label"><a xlink:title="testing.(*B).launch &#45;&gt; testing.(*B).runN (1.90s)">
<text text-anchor="middle" x="472" y="-1029.8" font-family="Times,serif" font-size="14.00"> 1.90s</text>
</a>
</g>
</g>
<!-- N4&#45;&gt;N1 -->
<g id="edge4" class="edge">
<title>N4&#45;&gt;N1</title>
<g id="a_edge4"><a xlink:title="_/home/semyon/Projects/bonch&#45;labs/AFSE/lab3.f &#45;&gt; math.pow (1.20s)">
<path fill="none" stroke="#b21600" stroke-width="4" d="M455,-693.76C455,-681.21 455,-666.96 455,-653.07"/>
<polygon fill="#b21600" stroke="#b21600" stroke-width="4" points="458.5,-653.06 455,-643.06 451.5,-653.06 458.5,-653.06"/>
</a>
</g>
<g id="a_edge4&#45;label"><a xlink:title="_/home/semyon/Projects/bonch&#45;labs/AFSE/lab3.f &#45;&gt; math.pow (1.20s)">
<text text-anchor="middle" x="472" y="-664.8" font-family="Times,serif" font-size="14.00"> 1.20s</text>
</a>
</g>
</g>
<!-- N16 -->
<g id="node16" class="node">
<title>N16</title>
<g id="a_node16"><a xlink:title="math.Pow (0.02s)">
<polygon fill="#edeceb" stroke="#b2b0a9" points="647,-609 569,-609 569,-565 647,-565 647,-609"/>
<text text-anchor="middle" x="608" y="-596.2" font-family="Times,serif" font-size="11.00">math</text>
<text text-anchor="middle" x="608" y="-584.2" font-family="Times,serif" font-size="11.00">Pow</text>
<text text-anchor="middle" x="608" y="-572.2" font-family="Times,serif" font-size="11.00">0.02s (1.05%)</text>
</a>
</g>
</g>
<!-- N4&#45;&gt;N16 -->
<g id="edge20" class="edge">
<title>N4&#45;&gt;N16</title>
<g id="a_edge20"><a xlink:title="_/home/semyon/Projects/bonch&#45;labs/AFSE/lab3.f &#45;&gt; math.Pow (0.02s)">
<path fill="none" stroke="#b2b0a9" d="M502.75,-693.93C520.83,-678.55 541.31,-660.43 559,-643 567.3,-634.82 575.9,-625.5 583.53,-616.88"/>
<polygon fill="#b2b0a9" stroke="#b2b0a9" points="586.28,-619.05 590.23,-609.22 581.01,-614.44 586.28,-619.05"/>
</a>
</g>
<g id="a_edge20&#45;label"><a xlink:title="_/home/semyon/Projects/bonch&#45;labs/AFSE/lab3.f &#45;&gt; math.Pow (0.02s)">
<text text-anchor="middle" x="557" y="-664.8" font-family="Times,serif" font-size="14.00"> 0.02s</text>
</a>
</g>
</g>
<!-- N5&#45;&gt;N8 -->
<g id="edge17" class="edge">
<title>N5&#45;&gt;N8</title>
<g id="a_edge17"><a xlink:title="math.ldexp &#45;&gt; math.IsInf (0.03s)">
<path fill="none" stroke="#b2aea4" d="M323.83,-372.85C335.25,-355.36 350.5,-336.75 369,-325 403.06,-303.36 420.12,-320.92 458,-307 459.43,-306.48 460.86,-305.92 462.3,-305.34"/>
<polygon fill="#b2aea4" stroke="#b2aea4" points="464.03,-308.4 471.76,-301.15 461.2,-301.99 464.03,-308.4"/>
</a>
</g>
<g id="a_edge17&#45;label"><a xlink:title="math.ldexp &#45;&gt; math.IsInf (0.03s)">
<text text-anchor="middle" x="391" y="-343.8" font-family="Times,serif" font-size="14.00"> 0.03s</text>
<text text-anchor="middle" x="391" y="-328.8" font-family="Times,serif" font-size="14.00"> (inline)</text>
</a>
</g>
</g>
<!-- N11 -->
<g id="node11" class="node">
<title>N11</title>
<g id="a_node11"><a xlink:title="math.normalize (0.08s)">
<polygon fill="#edebe8" stroke="#b2a38c" points="449,-302.5 359,-302.5 359,-246.5 449,-246.5 449,-302.5"/>
<text text-anchor="middle" x="404" y="-289.7" font-family="Times,serif" font-size="11.00">math</text>
<text text-anchor="middle" x="404" y="-277.7" font-family="Times,serif" font-size="11.00">normalize</text>
<text text-anchor="middle" x="404" y="-265.7" font-family="Times,serif" font-size="11.00">0.02s (1.05%)</text>
<text text-anchor="middle" x="404" y="-253.7" font-family="Times,serif" font-size="11.00">of 0.08s (4.21%)</text>
</a>
</g>
</g>
<!-- N5&#45;&gt;N11 -->
<g id="edge18" class="edge">
<title>N5&#45;&gt;N11</title>
<g id="a_edge18"><a xlink:title="math.ldexp &#45;&gt; math.normalize (0.03s)">
<path fill="none" stroke="#b2aea4" d="M291.65,-372.58C290.98,-356.45 293.11,-338.87 302,-325 312.81,-308.14 331.15,-296.86 349.31,-289.39"/>
<polygon fill="#b2aea4" stroke="#b2aea4" points="350.64,-292.63 358.76,-285.82 348.17,-286.08 350.64,-292.63"/>
</a>
</g>
<g id="a_edge18&#45;label"><a xlink:title="math.ldexp &#45;&gt; math.normalize (0.03s)">
<text text-anchor="middle" x="319" y="-336.3" font-family="Times,serif" font-size="14.00"> 0.03s</text>
</a>
</g>
</g>
<!-- N7&#45;&gt;N8 -->
<g id="edge16" class="edge">
<title>N7&#45;&gt;N8</title>
<g id="a_edge16"><a xlink:title="math.frexp &#45;&gt; math.IsInf (0.03s)">
<path fill="none" stroke="#b2aea4" d="M469.91,-380.78C476.81,-363.73 485.2,-343.29 493,-325 495.02,-320.26 497.19,-315.27 499.34,-310.37"/>
<polygon fill="#b2aea4" stroke="#b2aea4" points="502.59,-311.69 503.43,-301.13 496.19,-308.86 502.59,-311.69"/>
</a>
</g>
<g id="a_edge16&#45;label"><a xlink:title="math.frexp &#45;&gt; math.IsInf (0.03s)">
<text text-anchor="middle" x="515" y="-343.8" font-family="Times,serif" font-size="14.00"> 0.03s</text>
<text text-anchor="middle" x="515" y="-328.8" font-family="Times,serif" font-size="14.00"> (inline)</text>
</a>
</g>
</g>
<!-- N7&#45;&gt;N11 -->
<g id="edge13" class="edge">
<title>N7&#45;&gt;N11</title>
<g id="a_edge13"><a xlink:title="math.frexp &#45;&gt; math.normalize (0.05s)">
<path fill="none" stroke="#b2aa9b" d="M436.66,-380.77C432.88,-372.4 429.1,-363.48 426,-355 421.02,-341.39 416.54,-326.12 412.94,-312.62"/>
<polygon fill="#b2aa9b" stroke="#b2aa9b" points="416.27,-311.5 410.37,-302.7 409.49,-313.26 416.27,-311.5"/>
</a>
</g>
<g id="a_edge13&#45;label"><a xlink:title="math.frexp &#45;&gt; math.normalize (0.05s)">
<text text-anchor="middle" x="448" y="-343.8" font-family="Times,serif" font-size="14.00"> 0.05s</text>
<text text-anchor="middle" x="448" y="-328.8" font-family="Times,serif" font-size="14.00"> (inline)</text>
</a>
</g>
</g>
<!-- N9&#45;&gt;N6 -->
<g id="edge14" class="edge">
<title>N9&#45;&gt;N6</title>
<g id="a_edge14"><a xlink:title="math.isOddInt &#45;&gt; math.modf (0.05s)">
<path fill="none" stroke="#b2aa9b" d="M751.71,-386.73C737.47,-365.81 718.6,-338.08 703.26,-315.55"/>
<polygon fill="#b2aa9b" stroke="#b2aa9b" points="706.09,-313.49 697.57,-307.19 700.31,-317.43 706.09,-313.49"/>
</a>
</g>
<g id="a_edge14&#45;label"><a xlink:title="math.isOddInt &#45;&gt; math.modf (0.05s)">
<text text-anchor="middle" x="745" y="-336.3" font-family="Times,serif" font-size="14.00"> 0.05s</text>
</a>
</g>
</g>
<!-- N9&#45;&gt;N12 -->
<g id="edge23" class="edge">
<title>N9&#45;&gt;N12</title>
<g id="a_edge23"><a xlink:title="math.isOddInt &#45;&gt; math.Modf (0.01s)">
<path fill="none" stroke="#b2b1ad" d="M783.16,-386.84C790.05,-368.06 800.23,-344.16 813,-325 817.11,-318.84 822.04,-312.76 827.15,-307.09"/>
<polygon fill="#b2b1ad" stroke="#b2b1ad" points="829.86,-309.32 834.17,-299.64 824.76,-304.52 829.86,-309.32"/>
</a>
</g>
<g id="a_edge23&#45;label"><a xlink:title="math.isOddInt &#45;&gt; math.Modf (0.01s)">
<text text-anchor="middle" x="830" y="-336.3" font-family="Times,serif" font-size="14.00"> 0.01s</text>
</a>
</g>
</g>
<!-- N14 -->
<g id="node14" class="node">
<title>N14</title>
<g id="a_node14"><a xlink:title="math.Float64frombits (0.05s)">
<polygon fill="#edecea" stroke="#b2aa9b" points="455.5,-50 352.5,-50 352.5,0 455.5,0 455.5,-50"/>
<text text-anchor="middle" x="404" y="-35.6" font-family="Times,serif" font-size="13.00">math</text>
<text text-anchor="middle" x="404" y="-21.6" font-family="Times,serif" font-size="13.00">Float64frombits</text>
<text text-anchor="middle" x="404" y="-7.6" font-family="Times,serif" font-size="13.00">0.05s (2.63%)</text>
</a>
</g>
</g>
<!-- N10&#45;&gt;N14 -->
<g id="edge12" class="edge">
<title>N10&#45;&gt;N14</title>
<g id="a_edge12"><a xlink:title="math.Abs &#45;&gt; math.Float64frombits (0.05s)">
<path fill="none" stroke="#b2aa9b" d="M404,-115.89C404,-99.14 404,-77.99 404,-60.42"/>
<polygon fill="#b2aa9b" stroke="#b2aa9b" points="407.5,-60.01 404,-50.01 400.5,-60.01 407.5,-60.01"/>
</a>
</g>
<g id="a_edge12&#45;label"><a xlink:title="math.Abs &#45;&gt; math.Float64frombits (0.05s)">
<text text-anchor="middle" x="426" y="-86.8" font-family="Times,serif" font-size="14.00"> 0.05s</text>
<text text-anchor="middle" x="426" y="-71.8" font-family="Times,serif" font-size="14.00"> (inline)</text>
</a>
</g>
</g>
<!-- N11&#45;&gt;N10 -->
<g id="edge11" class="edge">
<title>N11&#45;&gt;N10</title>
<g id="a_edge11"><a xlink:title="math.normalize &#45;&gt; math.Abs (0.06s)">
<path fill="none" stroke="#b2a896" d="M404,-246.36C404,-228.89 404,-205.88 404,-186.4"/>
<polygon fill="#b2a896" stroke="#b2a896" points="407.5,-186.3 404,-176.3 400.5,-186.3 407.5,-186.3"/>
</a>
</g>
<g id="a_edge11&#45;label"><a xlink:title="math.normalize &#45;&gt; math.Abs (0.06s)">
<text text-anchor="middle" x="426" y="-212.8" font-family="Times,serif" font-size="14.00"> 0.06s</text>
<text text-anchor="middle" x="426" y="-197.8" font-family="Times,serif" font-size="14.00"> (inline)</text>
</a>
</g>
</g>
<!-- N13&#45;&gt;N1 -->
<g id="edge7" class="edge">
<title>N13&#45;&gt;N1</title>
<g id="a_edge7"><a xlink:title="_/home/semyon/Projects/bonch&#45;labs/AFSE/lab3.fp1 &#45;&gt; math.pow (0.28s)">
<path fill="none" stroke="#b2682e" d="M347.83,-705.73C362,-690.16 380.4,-669.95 397.93,-650.69"/>
<polygon fill="#b2682e" stroke="#b2682e" points="400.72,-652.83 404.86,-643.08 395.54,-648.12 400.72,-652.83"/>
</a>
</g>
<g id="a_edge7&#45;label"><a xlink:title="_/home/semyon/Projects/bonch&#45;labs/AFSE/lab3.fp1 &#45;&gt; math.pow (0.28s)">
<text text-anchor="middle" x="403" y="-664.8" font-family="Times,serif" font-size="14.00"> 0.28s</text>
</a>
</g>
</g>
<!-- N18&#45;&gt;N2 -->
<g id="edge2" class="edge">
<title>N18&#45;&gt;N2</title>
<g id="a_edge2"><a xlink:title="testing.(*B).runN &#45;&gt; _/home/semyon/Projects/bonch&#45;labs/AFSE/lab3.BenchmarkTangents (1.90s)">
<path fill="none" stroke="#b20000" stroke-width="6" d="M455,-963.91C455,-952.53 455,-937.93 455,-923.64"/>
<polygon fill="#b20000" stroke="#b20000" stroke-width="6" points="460.25,-923.35 455,-913.35 449.75,-923.35 460.25,-923.35"/>
</a>
</g>
<g id="a_edge2&#45;label"><a xlink:title="testing.(*B).runN &#45;&gt; _/home/semyon/Projects/bonch&#45;labs/AFSE/lab3.BenchmarkTangents (1.90s)">
<text text-anchor="middle" x="472" y="-934.8" font-family="Times,serif" font-size="14.00"> 1.90s</text>
</a>
</g>
</g>
</g>
</g></svg>
